<?xml version="1.0" encoding="UTF-8"?>
<svg version="1.1" xmlns="http://www.w3.org/2000/svg" width="500" height="173">
<path d="M0 0 C2.625 0.9375 2.625 0.9375 5 2 C5 2.66 5 3.32 5 4 C4.34741211 4.36125977 3.69482422 4.72251953 3.02246094 5.09472656 C-9.44134619 12.00548197 -21.84655589 18.96125997 -33.97949219 26.44238281 C-34.7480957 26.91256836 -35.51669922 27.38275391 -36.30859375 27.8671875 C-36.97689209 28.28081543 -37.64519043 28.69444336 -38.33374023 29.12060547 C-40 30 -40 30 -42 30 C-42 54.09 -42 78.18 -42 103 C-36.39 103 -30.78 103 -25 103 C-24.34 103.33 -23.68 103.66 -23 104 C-23.00888245 103.3117514 -23.01776489 102.62350281 -23.0269165 101.91439819 C-23.11548295 94.74428623 -23.17577339 87.57432994 -23.21972656 80.40380859 C-23.23756825 77.72836625 -23.26711049 75.05377984 -23.30175781 72.37841797 C-23.35033506 68.53081429 -23.37298365 64.68379213 -23.390625 60.8359375 C-23.41127014 59.64197357 -23.43191528 58.44800964 -23.45318604 57.21786499 C-23.45490557 50.83936832 -23.38425441 46.79946792 -19 42 C-14.08698457 37.67186736 -11.13714563 36.57063373 -4.671875 36.6640625 C-0.33836889 37.20891853 2.9852118 38.84039665 6 42 C10.38341575 48.96424791 10.53466259 54.70704808 10.390625 62.8125 C10.38496521 64.02196289 10.37930542 65.23142578 10.37347412 66.47753906 C10.35118613 70.3187717 10.30100094 74.15905199 10.25 78 C10.22992534 80.61326772 10.21167627 83.22655015 10.1953125 85.83984375 C10.15134599 92.2268843 10.08450858 98.61337408 10 105 C11.0994545 105.06041977 12.198909 105.12083954 13.3316803 105.18309021 C23.70456166 105.75352445 34.07726106 106.3271712 44.44979191 106.90394497 C49.78211439 107.20035042 55.11449407 107.4956328 60.44702148 107.78833008 C65.59538479 108.07096052 70.74357535 108.35656519 75.89166069 108.64421272 C77.85353193 108.75331113 79.81546259 108.86134669 81.77745247 108.96829033 C84.53026768 109.11852406 87.28284539 109.2725717 90.03540039 109.42749023 C90.84244919 109.47064865 91.64949799 109.51380707 92.48100281 109.55827332 C97.03866677 109.81933369 101.490133 110.28783442 106 111 C106 111.33 106 111.66 106 112 C54.19 112 2.38 112 -51 112 C-51.185625 98.59375 -51.37125 85.1875 -51.5625 71.375 C-51.64443604 67.14864746 -51.72637207 62.92229492 -51.81079102 58.56787109 C-51.85144043 53.38989258 -51.85144043 53.38989258 -51.85899353 50.96255493 C-51.87277654 49.2742679 -51.90435677 47.58606728 -51.95018005 45.89834595 C-52.31796688 31.63400557 -52.31796688 31.63400557 -49.06077576 27.59576416 C-46.74260409 26.02314798 -44.61259676 24.98721459 -42 24 C-40.81020323 23.33244319 -39.62903034 22.64877914 -38.46484375 21.9375 C-37.29076007 21.28858571 -36.11490854 20.64286187 -34.9375 20 C-26.51407096 15.33445942 -18.20605159 10.47704952 -9.89819336 5.609375 C-8.90311768 5.02671875 -7.90804199 4.4440625 -6.8828125 3.84375 C-5.54307373 3.05774414 -5.54307373 3.05774414 -4.17626953 2.25585938 C-2.80588024 1.46504913 -1.4151601 0.70758005 0 0 Z M-15 48 C-16.27469407 50.54938815 -16.12016184 52.33040998 -16.11352539 55.18408203 C-16.11344986 56.26505157 -16.11337433 57.34602112 -16.11329651 58.45974731 C-16.10813522 59.63060883 -16.10297394 60.80147034 -16.09765625 62.0078125 C-16.09553383 63.8014473 -16.09553383 63.8014473 -16.09336853 65.63131714 C-16.08775663 69.46256987 -16.07520208 73.29376484 -16.0625 77.125 C-16.05748653 79.71744707 -16.05292336 82.30989506 -16.04882812 84.90234375 C-16.03778333 91.26824898 -16.02103359 97.63412037 -16 104 C-14.74123047 104.16298584 -13.48246094 104.32597168 -12.18554688 104.49389648 C-11.12346008 104.63141579 -11.12346008 104.63141579 -10.03991699 104.77171326 C-7.51601845 105.05416229 -5.03825804 105.09775358 -2.5 105.0625 C-1.21609375 105.04896484 -1.21609375 105.04896484 0.09375 105.03515625 C0.7228125 105.02355469 1.351875 105.01195312 2 105 C3.21791254 102.56417493 3.1333186 100.98477608 3.14526367 98.26245117 C3.15164352 97.27770309 3.15802338 96.29295502 3.16459656 95.27836609 C3.16570938 94.21068497 3.1668222 93.14300385 3.16796875 92.04296875 C3.17129715 90.94785477 3.17462555 89.85274078 3.17805481 88.72444153 C3.18312519 86.40345684 3.1854631 84.08246483 3.18530273 81.76147461 C3.18748457 78.21260509 3.20562649 74.66404866 3.22460938 71.11523438 C3.2275442 68.86198023 3.2295284 66.60872461 3.23046875 64.35546875 C3.23765427 63.29386032 3.24483978 62.23225189 3.25224304 61.13847351 C3.24916641 60.14426895 3.24608978 59.15006439 3.24291992 58.12573242 C3.24434494 57.25462326 3.24576996 56.3835141 3.24723816 55.48600769 C2.82940727 51.28467074 1.66837546 48.66837546 -1.3125 45.6875 C-6.90954702 42.17307513 -10.04412081 44.17045699 -15 48 Z " fill="#FCFCFC" transform="translate(164,42)"/>
<path d="M0 0 C1.87426758 0.88867187 1.87426758 0.88867187 3.64453125 1.96875 C4.31250732 2.37005127 4.9804834 2.77135254 5.66870117 3.18481445 C6.37615479 3.61882568 7.0836084 4.05283691 7.8125 4.5 C9.34553911 5.4219296 10.8794119 6.34247415 12.4140625 7.26171875 C13.18524414 7.72497559 13.95642578 8.18823242 14.75097656 8.66552734 C17.40760462 10.24185485 20.09204041 11.76004855 22.79370117 13.25756836 C24.06512357 13.96580817 25.3309101 14.68425356 26.59106445 15.41235352 C30.61936752 17.73273146 34.69567656 19.82264911 38.89453125 21.8203125 C53.87610674 29.29023122 53.87610674 29.29023122 55.97167969 34.34277344 C56.8924956 39.7222769 56.17442277 44.71509754 55 50 C50.99837244 49.40978811 48.14707221 48.15443329 44.66796875 46.11328125 C43.63317383 45.51080566 42.59837891 44.90833008 41.53222656 44.28759766 C40.4284668 43.63581543 39.32470703 42.9840332 38.1875 42.3125 C37.03527624 41.64034899 35.88260038 40.96897244 34.72949219 40.29833984 C28.85270967 36.8748174 23.00183558 33.40879266 17.16015625 29.92578125 C16.08161377 29.28664795 15.00307129 28.64751465 13.8918457 27.98901367 C11.83706121 26.76993841 9.78717795 25.54255403 7.74291992 24.3059082 C6.8119751 23.75378662 5.88103027 23.20166504 4.921875 22.6328125 C4.11331055 22.14699707 3.30474609 21.66118164 2.47167969 21.16064453 C-0.40542649 19.80962095 -2.83456267 19.25917417 -6 19 C-8.63747874 20.21542799 -10.8345289 21.43632044 -13.25 23 C-14.76571242 23.9355645 -16.28272629 24.86902259 -17.80078125 25.80078125 C-18.62916504 26.31463379 -19.45754883 26.82848633 -20.31103516 27.35791016 C-25.29466186 30.40129795 -30.37233101 33.28264335 -35.4375 36.1875 C-37.662945 37.46973177 -39.88820249 38.75228904 -42.11328125 40.03515625 C-46.20017201 42.38881704 -50.28800936 44.74081782 -54.37678528 47.09120178 C-56.15129074 48.11150425 -57.92543737 49.13242776 -59.69946289 50.15356445 C-61.92317007 51.43333321 -64.14757649 52.71188804 -66.37280273 53.98901367 C-71.44266322 56.90765803 -76.44352288 59.84858812 -81.27685547 63.14794922 C-83 64 -83 64 -87 64 C-87.13559675 61.43571485 -87.23433188 58.87864784 -87.3125 56.3125 C-87.35439453 55.59126953 -87.39628906 54.87003906 -87.43945312 54.12695312 C-87.52526065 50.36858356 -87.35454271 48.51178127 -85.16796875 45.35546875 C-81.62060958 42.71791317 -77.98405598 40.66643674 -74.07373047 38.61621094 C-70.93719698 36.96697728 -67.86015896 35.23765279 -64.78515625 33.4765625 C-63.70024902 32.85571777 -62.6153418 32.23487305 -61.49755859 31.59521484 C-60.36398926 30.94504395 -59.23041992 30.29487305 -58.0625 29.625 C-56.84983264 28.93039566 -55.63710345 28.23589925 -54.42431641 27.54150391 C-52.53827738 26.46161386 -50.65228675 25.3816403 -48.76654053 24.30123901 C-44.28110304 21.73174475 -39.79185918 19.16899579 -35.30078125 16.609375 C-33.42801785 15.54145807 -31.55529844 14.47346402 -29.68258667 13.40545654 C-27.92687087 12.40457019 -26.17059715 11.40466271 -24.41430664 10.40478516 C-23.32625732 9.78394043 -22.23820801 9.1630957 -21.1171875 8.5234375 C-20.08174805 7.93530273 -19.04630859 7.34716797 -17.97949219 6.74121094 C-16.01326571 5.59215102 -14.06986497 4.40299052 -12.15332031 3.17285156 C-10.84379395 2.33318848 -10.84379395 2.33318848 -9.5078125 1.4765625 C-8.37690186 0.72366943 -8.37690186 0.72366943 -7.22314453 -0.04443359 C-4.35531053 -1.27710461 -2.94255726 -0.93572087 0 0 Z " fill="#F37B05" transform="translate(159,13)"/>
<path d="M0 0 C0.495 1.485 0.495 1.485 1 3 C0.37359619 3.34554932 -0.25280762 3.69109863 -0.89819336 4.04711914 C-14.50063104 11.56701553 -27.94992588 19.25334258 -41.20092773 27.37524414 C-42.19552002 27.98102295 -43.1901123 28.58680176 -44.21484375 29.2109375 C-45.09261475 29.75024902 -45.97038574 30.28956055 -46.87475586 30.84521484 C-49 32 -49 32 -51 32 C-51 60.38 -51 88.76 -51 118 C-54.63 118 -58.26 118 -62 118 C-62 89.29 -62 60.58 -62 31 C-61.01 31 -60.02 31 -59 31 C-58.67 30.34 -58.34 29.68 -58 29 C-56.01071831 27.85976458 -53.98057941 26.79077135 -51.9375 25.75 C-44.80769442 22.04997911 -37.86567246 18.06348385 -30.9375 14 C-29.90254395 13.39567139 -28.86758789 12.79134277 -27.80126953 12.16870117 C-23.35686623 9.57030976 -18.92119682 6.96183223 -14.5234375 4.28515625 C-13.882854 3.90166016 -13.24227051 3.51816406 -12.58227539 3.12304688 C-10.95108132 2.14554556 -9.32862167 1.15350787 -7.70703125 0.16015625 C-4.60424974 -1.16960725 -3.16580343 -1.02440074 0 0 Z " fill="#FEFEFE" transform="translate(159,36)"/>
<path d="M0 0 C0 0.99 0 1.98 0 3 C0.99 3.33 1.98 3.66 3 4 C1.35 4.33 -0.3 4.66 -2 5 C-2 5.99 -2 6.98 -2 8 C-2.66 8 -3.32 8 -4 8 C-4 8.66 -4 9.32 -4 10 C-5.78953185 10.83790789 -7.58169695 11.67019396 -9.375 12.5 C-10.37273437 12.9640625 -11.37046875 13.428125 -12.3984375 13.90625 C-15 15 -15 15 -17 15 C-17 15.66 -17 16.32 -17 17 C-17.52207031 17.27972656 -18.04414063 17.55945313 -18.58203125 17.84765625 C-23.98747594 20.79177761 -29.1749795 23.97976435 -34.32421875 27.3515625 C-37.14260238 29.0878514 -40.04012296 30.52006148 -43 32 C-45.07546745 33.2495433 -47.13759816 34.52144381 -49.1875 35.8125 C-65.54099384 46 -65.54099384 46 -69 46 C-69 46.66 -69 47.32 -69 48 C-71.475 48.495 -71.475 48.495 -74 49 C-74 49.66 -74 50.32 -74 51 C-74.99 51 -75.98 51 -77 51 C-77.08126087 48.91731407 -77.13930839 46.83371342 -77.1875 44.75 C-77.22230469 43.58984375 -77.25710937 42.4296875 -77.29296875 41.234375 C-76.97447984 37.71825745 -76.45606954 36.46749312 -74 34 C-68.75 31 -68.75 31 -66 31 C-65.91927246 30.11356812 -65.91927246 30.11356812 -65.83691406 29.20922852 C-64.60429849 25.9554542 -62.63286227 25.2877755 -59.609375 23.65234375 C-58.50722656 23.04712891 -57.40507813 22.44191406 -56.26953125 21.81835938 C-55.10808594 21.19767578 -53.94664063 20.57699219 -52.75 19.9375 C-50.47376691 18.69696577 -48.19771853 17.45609252 -45.921875 16.21484375 C-44.39965332 15.39681274 -44.39965332 15.39681274 -42.84667969 14.56225586 C-40.97210724 13.53349179 -39.11810395 12.46617693 -37.28881836 11.35888672 C-34.84291899 9.90673996 -32.51513663 9.06176502 -29.8125 8.1875 C-25.79000307 6.80912438 -22.66140041 5.1863163 -19.1875 2.75 C-13.12861415 -1.1456972 -6.9648241 -0.54193156 0 0 Z " fill="#F47B06" transform="translate(151,24)"/>
<path d="M0 0 C2.64 0 5.28 0 8 0 C8.66 1.98 9.32 3.96 10 6 C10.928125 4.515 10.928125 4.515 11.875 3 C13.74139773 0.69540454 14.58441295 0.06471737 17.55859375 -0.3984375 C20.06263384 -0.37712652 22.51009157 -0.26107778 25 0 C23.38617243 3.40212299 21.41396234 6.10324519 19 9 C20.56641751 13.30764815 22.68336156 17.06171464 25 21 C27.15737915 18.84262085 27.706392 17.48224443 28.7265625 14.6484375 C29.0359375 13.79765625 29.3453125 12.946875 29.6640625 12.0703125 C29.98117187 11.18085937 30.29828125 10.29140625 30.625 9.375 C31.11226563 8.02921875 31.11226563 8.02921875 31.609375 6.65625 C32.41124979 4.43930206 33.20627642 2.21987932 34 0 C37.3 0 40.6 0 44 0 C45.33735614 3.4568268 46.67004741 6.91532602 48 10.375 C48.3815625 11.35984375 48.763125 12.3446875 49.15625 13.359375 C49.69765625 14.77089844 49.69765625 14.77089844 50.25 16.2109375 C50.58515625 17.08024902 50.9203125 17.94956055 51.265625 18.84521484 C52 21 52 21 52 23 C49.03 23 46.06 23 43 23 C43 22.01 43 21.02 43 20 C40.36 20 37.72 20 35 20 C34.505 21.485 34.505 21.485 34 23 C31.06097651 23.13481759 28.12810441 23.23399416 25.1875 23.3125 C24.35412109 23.35439453 23.52074219 23.39628906 22.66210938 23.43945312 C20.34148205 23.48605207 18.2730263 23.47548292 16 23 C13.89284386 20.56744499 13 19.22424768 13 16 C11.02 16.99 11.02 16.99 9 18 C9 19.65 9 21.3 9 23 C6.03 23 3.06 23 0 23 C0 15.41 0 7.82 0 0 Z M38 9 C39 11 39 11 39 11 Z M39 11 C38.01 11.495 38.01 11.495 37 12 C37 12.66 37 13.32 37 14 C37.99 14 38.98 14 40 14 C39.67 13.01 39.34 12.02 39 11 Z " fill="#FCFCFC" transform="translate(314,85)"/>
<path d="M0 0 C3.66956733 1.99469601 7.3350856 3.99677301 11 6 C11.81436523 6.44472656 12.62873047 6.88945313 13.46777344 7.34765625 C16.18788343 8.83405515 18.90655567 10.3230573 21.625 11.8125 C22.52637695 12.30468018 23.42775391 12.79686035 24.35644531 13.30395508 C25.20045898 13.76697021 26.04447266 14.22998535 26.9140625 14.70703125 C28.0580249 15.33315308 28.0580249 15.33315308 29.22509766 15.97192383 C31 17 31 17 32 18 C32.08631874 19.34267413 32.10706473 20.68974322 32.09765625 22.03515625 C32.09443359 22.84404297 32.09121094 23.65292969 32.08789062 24.48632812 C32.07951172 25.33646484 32.07113281 26.18660156 32.0625 27.0625 C32.05798828 27.91650391 32.05347656 28.77050781 32.04882812 29.65039062 C32.03700373 31.76695663 32.01906769 33.88348685 32 36 C27.99837244 35.40978811 25.14707221 34.15443329 21.66796875 32.11328125 C20.11577637 31.20956787 20.11577637 31.20956787 18.53222656 30.28759766 C17.4284668 29.63581543 16.32470703 28.9840332 15.1875 28.3125 C14.03527624 27.64034899 12.88260038 26.96897244 11.72949219 26.29833984 C5.85270967 22.8748174 0.00183558 19.40879266 -5.83984375 15.92578125 C-6.91838623 15.28664795 -7.99692871 14.64751465 -9.1081543 13.98901367 C-11.16293879 12.76993841 -13.21282205 11.54255403 -15.25708008 10.3059082 C-16.1880249 9.75378662 -17.11896973 9.20166504 -18.078125 8.6328125 C-19.29097168 7.90408936 -19.29097168 7.90408936 -20.52832031 7.16064453 C-23.40542649 5.80962095 -25.83456267 5.25917417 -29 5 C-31.63747874 6.21542799 -33.8345289 7.43632044 -36.25 9 C-37.76571242 9.9355645 -39.28272629 10.86902259 -40.80078125 11.80078125 C-42.04335693 12.57156006 -42.04335693 12.57156006 -43.31103516 13.35791016 C-48.29466186 16.40129795 -53.37233101 19.28264335 -58.4375 22.1875 C-60.662945 23.46973177 -62.88820249 24.75228904 -65.11328125 26.03515625 C-69.20017201 28.38881704 -73.28800936 30.74081782 -77.37678528 33.09120178 C-79.15129074 34.11150425 -80.92543737 35.13242776 -82.69946289 36.15356445 C-84.92317007 37.43333321 -87.14757649 38.71188804 -89.37280273 39.98901367 C-94.44266322 42.90765803 -99.44352288 45.84858812 -104.27685547 49.14794922 C-106 50 -106 50 -110 50 C-110.13559675 47.43571485 -110.23433188 44.87864784 -110.3125 42.3125 C-110.35439453 41.59126953 -110.39628906 40.87003906 -110.43945312 40.12695312 C-110.53374665 35.99689681 -110.38146073 34.47845331 -107.7109375 31.12890625 C-104.51743951 28.621044 -101.64532528 26.78827278 -98 25 C-97.34 25.33 -96.68 25.66 -96 26 C-97.93254772 28.0245738 -99.63158688 29.42105792 -102 31 C-102.99 31 -103.98 31 -105 31 C-107.15059309 34.53186832 -107.3797728 37.66287993 -107.625 41.75 C-107.69976562 42.92046875 -107.77453125 44.0909375 -107.8515625 45.296875 C-107.90054688 46.18890625 -107.94953125 47.0809375 -108 48 C-107.01 48 -106.02 48 -105 48 C-105 47.34 -105 46.68 -105 46 C-102.525 45.505 -102.525 45.505 -100 45 C-100 44.34 -100 43.68 -100 43 C-98.19921875 41.703125 -98.19921875 41.703125 -95.6875 40.25 C-94.77613281 39.72019531 -93.86476563 39.19039062 -92.92578125 38.64453125 C-89.16804106 36.53237021 -85.38008049 34.47945517 -81.5859375 32.43359375 C-79.33756901 31.18714173 -77.16559017 29.88332597 -75 28.5 C-71.04996247 25.97681276 -66.95224393 23.77517631 -62.82421875 21.55859375 C-59.13961015 19.52517904 -55.56590605 17.32912538 -51.99609375 15.1015625 C-50 14 -50 14 -48 14 C-48 13.34 -48 12.68 -48 12 C-46.21046815 11.16209211 -44.41830305 10.32980604 -42.625 9.5 C-41.62726563 9.0359375 -40.62953125 8.571875 -39.6015625 8.09375 C-37 7 -37 7 -35 7 C-35 6.34 -35 5.68 -35 5 C-30.77050005 2.58314288 -27.87664009 1.65166856 -23 2 C-22.505 3.485 -22.505 3.485 -22 5 C-21.29875 5.103125 -20.5975 5.20625 -19.875 5.3125 C-14.31765195 6.64143106 -10.36663587 9.43774442 -6 13 C-3.26466879 14.60901836 -2.24114485 15 1 15 C3.05078125 16.4609375 3.05078125 16.4609375 5.3125 18.375 C8.79658499 21.19059388 11.6205145 22.85299189 16 24 C16.99 24.66 17.98 25.32 19 26 C19 26.66 19 27.32 19 28 C20.98 28.66 22.96 29.32 25 30 C26.64570159 28.94369738 26.64570159 28.94369738 28 27 C28.2503577 23.37464024 28.2503577 23.37464024 28 20 C25.69 19.34 23.38 18.68 21 18 C21.33 16.68 21.66 15.36 22 14 C21.34515625 13.76152344 20.6903125 13.52304687 20.015625 13.27734375 C16.10933717 11.62273738 12.45385812 9.62426994 8.75 7.5625 C8.0178125 7.16740234 7.285625 6.77230469 6.53125 6.36523438 C5.83515625 5.97787109 5.1390625 5.59050781 4.421875 5.19140625 C3.47199707 4.66848999 3.47199707 4.66848999 2.50292969 4.13500977 C1 3 1 3 0 0 Z " fill="#DD842E" transform="translate(182,27)"/>
<path d="M0 0 C7.35229759 -0.49015317 7.35229759 -0.49015317 10.3125 1.75 C10.869375 2.4925 11.42625 3.235 12 4 C12.5775 4.7425 13.155 5.485 13.75 6.25 C14.36875 7.11625 14.36875 7.11625 15 8 C15.33 5.36 15.66 2.72 16 0 C18.64 0 21.28 0 24 0 C24 7.59 24 15.18 24 23 C16 23 16 23 13.6875 21.25 C13.130625 20.5075 12.57375 19.765 12 19 C11.4225 18.2575 10.845 17.515 10.25 16.75 C9.8375 16.1725 9.425 15.595 9 15 C8.67 17.64 8.34 20.28 8 23 C5.36 23 2.72 23 0 23 C-1.25050287 20.49899426 -1.02993449 18.99656948 -0.87890625 16.2109375 C-0.83056641 15.26992187 -0.78222656 14.32890625 -0.73242188 13.359375 C-0.67634766 12.37453125 -0.62027344 11.3896875 -0.5625 10.375 C-0.51029297 9.38242188 -0.45808594 8.38984375 -0.40429688 7.3671875 C-0.27441051 4.91115432 -0.13943836 2.4555064 0 0 Z " fill="#FCFCFC" transform="translate(368,85)"/>
<path d="M0 0 C1.9375 2.25 1.9375 2.25 2.25 5 C2.146875 5.7425 2.04375 6.485 1.9375 7.25 C-0.3725 7.25 -2.6825 7.25 -5.0625 7.25 C-5.3925 6.59 -5.7225 5.93 -6.0625 5.25 C-8.06204746 5.20745644 -10.06291636 5.20919217 -12.0625 5.25 C-13.29517348 6.25836062 -13.29517348 6.25836062 -13.16015625 8.31640625 C-13.14855469 9.14011719 -13.13695312 9.96382812 -13.125 10.8125 C-13.11597656 11.63878906 -13.10695312 12.46507813 -13.09765625 13.31640625 C-13.08605469 13.95449219 -13.07445312 14.59257813 -13.0625 15.25 C-9.5975 14.755 -9.5975 14.755 -6.0625 14.25 C-7.7125 13.92 -9.3625 13.59 -11.0625 13.25 C-10.7325 11.6 -10.4025 9.95 -10.0625 8.25 C-5.7725 8.25 -1.4825 8.25 2.9375 8.25 C2.9375 12.54 2.9375 16.83 2.9375 21.25 C0.91927083 21.21744792 -1.09895833 21.18489583 -3.1171875 21.15234375 C-5.14435404 21.12350758 -5.14435404 21.12350758 -7.0625 22.25 C-8.76952735 22.31996014 -10.47918003 22.33440154 -12.1875 22.3125 C-13.09757813 22.30347656 -14.00765625 22.29445313 -14.9453125 22.28515625 C-15.99332031 22.26775391 -15.99332031 22.26775391 -17.0625 22.25 C-17.0625 21.59 -17.0625 20.93 -17.0625 20.25 C-18.0525 19.92 -19.0425 19.59 -20.0625 19.25 C-22.68554095 15.31543858 -23.1266422 11.94039866 -23.0625 7.25 C-21.58199878 3.04225968 -19.94760548 0.48687891 -16.0625 -1.75 C-10.49752018 -3.51106956 -5.03439975 -2.87679986 0 0 Z " fill="#FBFBFB" transform="translate(245.0625,86.75)"/>
<path d="M0 0 C2.20885506 2.48496194 2.72698814 3.9738577 3 7.25 C0.36 7.25 -2.28 7.25 -5 7.25 C-5.33 6.59 -5.66 5.93 -6 5.25 C-7.99954746 5.20745644 -10.00041636 5.20919217 -12 5.25 C-13.40432936 6.42718985 -13.40432936 6.42718985 -13.125 9.75 C-13.40432936 13.07281015 -13.40432936 13.07281015 -12 14.25 C-10.00041636 14.29080783 -7.99954746 14.29254356 -6 14.25 C-7.32 13.92 -8.64 13.59 -10 13.25 C-10 11.6 -10 9.95 -10 8.25 C-5.71 8.25 -1.42 8.25 3 8.25 C3 12.54 3 16.83 3 21.25 C2.030625 21.229375 1.06125 21.20875 0.0625 21.1875 C-2.89523121 21.16950164 -5.69833467 21.45830561 -8.625 21.875 C-12.32309479 22.31524938 -14.70060376 22.19082132 -18 20.25 C-20.82993836 17.92540777 -21.80914316 15.89262037 -22.23828125 12.19921875 C-22.41780126 6.72858277 -21.88334782 3.43992791 -18 -0.75 C-12.15633081 -3.87568352 -5.617188 -3.276693 0 0 Z " fill="#FCFCFC" transform="translate(417,86.75)"/>
<path d="M0 0 C0.495 1.485 0.495 1.485 1 3 C0.37359619 3.34554932 -0.25280762 3.69109863 -0.89819336 4.04711914 C-14.50063104 11.56701553 -27.94992588 19.25334258 -41.20092773 27.37524414 C-42.19552002 27.98102295 -43.1901123 28.58680176 -44.21484375 29.2109375 C-45.09261475 29.75024902 -45.97038574 30.28956055 -46.87475586 30.84521484 C-49 32 -49 32 -51 32 C-51 39.92 -51 47.84 -51 56 C-51.33 56 -51.66 56 -52 56 C-52.33 49.73 -52.66 43.46 -53 37 C-54.32 36.67 -55.64 36.34 -57 36 C-57.66 35.34 -58.32 34.68 -59 34 C-59.66 34 -60.32 34 -61 34 C-60.67 34.99 -60.34 35.98 -60 37 C-59.98379485 39.44479312 -60.02470226 41.85251722 -60.12109375 44.29296875 C-60.14470474 44.99899734 -60.16831573 45.70502594 -60.19264221 46.43244934 C-60.26912945 48.68434507 -60.35321747 50.93588387 -60.4375 53.1875 C-60.49073568 54.71547741 -60.54347599 56.24347216 -60.59570312 57.77148438 C-60.72472424 61.51454835 -60.86056212 65.25731019 -61 69 C-61.33 69 -61.66 69 -62 69 C-62 56.46 -62 43.92 -62 31 C-61.01 31 -60.02 31 -59 31 C-58.67 30.34 -58.34 29.68 -58 29 C-56.01071831 27.85976458 -53.98057941 26.79077135 -51.9375 25.75 C-44.80769442 22.04997911 -37.86567246 18.06348385 -30.9375 14 C-29.90254395 13.39567139 -28.86758789 12.79134277 -27.80126953 12.16870117 C-23.35686623 9.57030976 -18.92119682 6.96183223 -14.5234375 4.28515625 C-13.882854 3.90166016 -13.24227051 3.51816406 -12.58227539 3.12304688 C-10.95108132 2.14554556 -9.32862167 1.15350787 -7.70703125 0.16015625 C-4.60424974 -1.16960725 -3.16580343 -1.02440074 0 0 Z " fill="#F7F7F6" transform="translate(159,36)"/>
<path d="M0 0 C8 0 8 0 10.3125 1.96875 C11.1478125 3.22171875 11.1478125 3.22171875 12 4.5 C12.5775 5.3353125 13.155 6.170625 13.75 7.03125 C14.1625 7.6809375 14.575 8.330625 15 9 C15.33 6.03 15.66 3.06 16 0 C18.31 0 20.62 0 23 0 C23.84191782 2.9248633 24.11819313 5.50741656 24.09765625 8.546875 C24.09443359 9.39121094 24.09121094 10.23554687 24.08789062 11.10546875 C24.07951172 11.97816406 24.07113281 12.85085937 24.0625 13.75 C24.05798828 14.63816406 24.05347656 15.52632812 24.04882812 16.44140625 C24.037074 18.62767329 24.02064249 20.81380179 24 23 C16.70897155 23.55142232 16.70897155 23.55142232 13.46875 21.03125 C12.8190625 20.1959375 12.169375 19.360625 11.5 18.5 C10.49453125 17.24703125 10.49453125 17.24703125 9.46875 15.96875 C8.9840625 15.3190625 8.499375 14.669375 8 14 C7.67 16.97 7.34 19.94 7 23 C4.69 23 2.38 23 0 23 C0 15.41 0 7.82 0 0 Z " fill="#FCFCFC" transform="translate(196,85)"/>
<path d="M0 0 C2.64 0 5.28 0 8 0 C8.33 5.28 8.66 10.56 9 16 C9.99 16.33 10.98 16.66 12 17 C12.66 16.67 13.32 16.34 14 16 C14.31241455 13.28553021 14.51336592 10.66090639 14.625 7.9375 C14.68300781 6.79958008 14.68300781 6.79958008 14.7421875 5.63867188 C14.83673562 3.75952805 14.91946756 1.87979664 15 0 C17.64 0 20.28 0 23 0 C23.13539281 2.89740622 23.23426829 5.78845621 23.3125 8.6875 C23.35439453 9.50412109 23.39628906 10.32074219 23.43945312 11.16210938 C23.5290186 15.58664375 23.4598724 17.40455383 20.66796875 21.01953125 C16.43970089 24.15823082 13.17296546 24.35070952 8 24 C4.01933905 22.42275698 2.39332726 21.58999089 0 18 C-0.22705078 16.00708008 -0.22705078 16.00708008 -0.1953125 13.76953125 C-0.18886719 12.96708984 -0.18242187 12.16464844 -0.17578125 11.33789062 C-0.15902344 10.50451172 -0.14226562 9.67113281 -0.125 8.8125 C-0.11597656 7.96751953 -0.10695312 7.12253906 -0.09765625 6.25195312 C-0.07410703 4.16784757 -0.03823647 2.08388783 0 0 Z " fill="#FCFCFC" transform="translate(252,85)"/>
<path d="M0 0 C2.04882812 0.98388672 2.04882812 0.98388672 4.03125 2.1796875 C4.75957031 2.61410156 5.48789063 3.04851563 6.23828125 3.49609375 C7.35783203 4.17865234 7.35783203 4.17865234 8.5 4.875 C9.61955078 5.54595703 9.61955078 5.54595703 10.76171875 6.23046875 C12.84513217 7.4805168 14.9230311 8.73928409 17 10 C18.66628762 11.00063148 20.33274985 12.00097312 22 13 C18.72445926 14.09184691 17.73940625 13.88854859 14.5 13.0625 C11.82210164 12.38856225 9.78655709 12 7 12 C6.01 11.67 5.02 11.34 4 11 C3.505 9.515 3.505 9.515 3 8 C3.66 7.67 4.32 7.34 5 7 C2.39417629 6.06934867 1.35801776 5.85082593 -1.25 6.9375 C-1.8275 7.288125 -2.405 7.63875 -3 8 C-3 8.66 -3 9.32 -3 10 C-1.68 10.33 -0.36 10.66 1 11 C0.525625 11.61875 0.05125 12.2375 -0.4375 12.875 C-2.02417441 14.90705546 -2.02417441 14.90705546 -3 17 C-4.65614657 17.38218767 -6.32457024 17.71395102 -8 18 C-8.99 18.495 -8.99 18.495 -10 19 C-10.66 18.34 -11.32 17.68 -12 17 C-11 15 -11 15 -8 14 C-8 13.01 -8 12.02 -8 11 C-18.31353166 10.74921504 -24.46363213 12.6878608 -32.94140625 18.1875 C-35.78066743 19.87002514 -37.75942802 20.61378658 -41 21 C-38.62495028 18.36945325 -36.11774268 16.78935496 -33.02734375 15.07421875 C-31.55297852 14.24954102 -31.55297852 14.24954102 -30.04882812 13.40820312 C-29.02208984 12.84037109 -27.99535156 12.27253906 -26.9375 11.6875 C-24.92504033 10.56773682 -22.91331546 9.44665195 -20.90234375 8.32421875 C-19.9160498 7.77813965 -18.92975586 7.23206055 -17.91357422 6.66943359 C-14.26809333 4.58062864 -10.75185003 2.30961832 -7.25610352 -0.02026367 C-4.35588474 -1.27971372 -2.97942718 -0.95873679 0 0 Z " fill="#EF7D0B" transform="translate(159,13)"/>
<path d="M0 0 C2.64 0 5.28 0 8 0 C9.13480527 3.60993172 9.10015767 6.9842327 9.0625 10.75 C9.05347656 11.92046875 9.04445313 13.0909375 9.03515625 14.296875 C9.02355469 15.18890625 9.01195312 16.0809375 9 17 C12.63 17 16.26 17 20 17 C20 18.98 20 20.96 20 23 C13.4 23 6.8 23 0 23 C0 15.41 0 7.82 0 0 Z " fill="#FDFDFD" transform="translate(279,85)"/>
<path d="M0 0 C-8.37500806 5.28293644 -16.89740437 10.26249234 -25.50488281 15.15551758 C-32.33910872 19.04331223 -39.14623574 22.97515085 -45.9375 26.9375 C-46.92886963 27.51467773 -47.92023926 28.09185547 -48.94165039 28.68652344 C-54.07329096 31.68077885 -59.18412198 34.70515687 -64.26953125 37.77734375 C-65.27443604 38.3813501 -66.27934082 38.98535645 -67.31469727 39.60766602 C-69.22988743 40.76079432 -71.14076562 41.9211237 -73.04663086 43.08959961 C-73.90264893 43.60401611 -74.75866699 44.11843262 -75.640625 44.6484375 C-76.38860352 45.10395996 -77.13658203 45.55948242 -77.90722656 46.02880859 C-80 47 -80 47 -84 47 C-84.13559675 44.43571485 -84.23433188 41.87864784 -84.3125 39.3125 C-84.35439453 38.59126953 -84.39628906 37.87003906 -84.43945312 37.12695312 C-84.53374665 32.99689681 -84.38146073 31.47845331 -81.7109375 28.12890625 C-78.51743951 25.621044 -75.64532528 23.78827278 -72 22 C-71.34 22.33 -70.68 22.66 -70 23 C-71.93254772 25.0245738 -73.63158688 26.42105792 -76 28 C-76.99 28 -77.98 28 -79 28 C-81.15059309 31.53186832 -81.3797728 34.66287993 -81.625 38.75 C-81.69976562 39.92046875 -81.77453125 41.0909375 -81.8515625 42.296875 C-81.90054688 43.18890625 -81.94953125 44.0809375 -82 45 C-81.01 45 -80.02 45 -79 45 C-79 44.34 -79 43.68 -79 43 C-76.525 42.505 -76.525 42.505 -74 42 C-74 41.34 -74 40.68 -74 40 C-72.19921875 38.703125 -72.19921875 38.703125 -69.6875 37.25 C-68.77613281 36.72019531 -67.86476563 36.19039062 -66.92578125 35.64453125 C-63.16804106 33.53237021 -59.38008049 31.47945517 -55.5859375 29.43359375 C-53.33756901 28.18714173 -51.16559017 26.88332597 -49 25.5 C-45.04996247 22.97681276 -40.95224393 20.77517631 -36.82421875 18.55859375 C-33.13961015 16.52517904 -29.56590605 14.32912538 -25.99609375 12.1015625 C-24 11 -24 11 -22 11 C-22 10.34 -22 9.68 -22 9 C-20.21046815 8.16209211 -18.41830305 7.32980604 -16.625 6.5 C-15.62726563 6.0359375 -14.62953125 5.571875 -13.6015625 5.09375 C-11 4 -11 4 -9 4 C-9 3.34 -9 2.68 -9 2 C-3.375 -1.125 -3.375 -1.125 0 0 Z " fill="#E69043" transform="translate(156,30)"/>
<path d="M0 0 C2.64 0 5.28 0 8 0 C8 7.59 8 15.18 8 23 C5.36 23 2.72 23 0 23 C0 15.41 0 7.82 0 0 Z " fill="#FCFCFC" transform="translate(302,85)"/>
<path d="M0 0 C10.35433804 5.62839017 20.67556786 11.31701189 31 17 C31 22.61 31 28.22 31 34 C28.69 33.34 26.38 32.68 24 32 C25.75 28.125 25.75 28.125 28 27 C28 24.69 28 22.38 28 20 C25.69 19.34 23.38 18.68 21 18 C21.33 16.68 21.66 15.36 22 14 C21.34515625 13.76152344 20.6903125 13.52304687 20.015625 13.27734375 C16.10933717 11.62273738 12.45385812 9.62426994 8.75 7.5625 C8.0178125 7.16740234 7.285625 6.77230469 6.53125 6.36523438 C5.83515625 5.97787109 5.1390625 5.59050781 4.421875 5.19140625 C3.78862305 4.84279541 3.15537109 4.49418457 2.50292969 4.13500977 C1 3 1 3 0 0 Z " fill="#E58527" transform="translate(182,27)"/>
<path d="M0 0 C0.66 0.33 1.32 0.66 2 1 C0.06745228 3.0245738 -1.63158688 4.42105792 -4 6 C-4.99 6 -5.98 6 -7 6 C-9.15059309 9.53186832 -9.3797728 12.66287993 -9.625 16.75 C-9.69976562 17.92046875 -9.77453125 19.0909375 -9.8515625 20.296875 C-9.90054688 21.18890625 -9.94953125 22.0809375 -10 23 C-9.01 23 -8.02 23 -7 23 C-7 22.34 -7 21.68 -7 21 C-5.35 20.67 -3.7 20.34 -2 20 C-2 19.34 -2 18.68 -2 18 C0.046875 16.45703125 0.046875 16.45703125 2.75 14.8125 C4.07257813 13.98685547 4.07257813 13.98685547 5.421875 13.14453125 C8.33520791 11.851188 9.07910142 12.09216363 12 13 C8.75872585 15.01441171 5.50565917 17.00893571 2.25 19 C1.32960938 19.57234375 0.40921875 20.1446875 -0.5390625 20.734375 C-1.42851563 21.27578125 -2.31796875 21.8171875 -3.234375 22.375 C-4.45979004 23.12910156 -4.45979004 23.12910156 -5.70996094 23.8984375 C-8 25 -8 25 -12 25 C-12.13559675 22.43571485 -12.23433188 19.87864784 -12.3125 17.3125 C-12.35439453 16.59126953 -12.39628906 15.87003906 -12.43945312 15.12695312 C-12.53374665 10.99689681 -12.38146073 9.47845331 -9.7109375 6.12890625 C-6.51743951 3.621044 -3.64532528 1.78827278 0 0 Z " fill="#DC8E41" transform="translate(84,52)"/>
<path d="M0 0 C0 0.66 0 1.32 0 2 C-0.66 2 -1.32 2 -2 2 C-2.66 3.65 -3.32 5.3 -4 7 C-4.66 7 -5.32 7 -6 7 C-6 7.66 -6 8.32 -6 9 C-6.804375 9.12375 -7.60875 9.2475 -8.4375 9.375 C-9.283125 9.58125 -10.12875 9.7875 -11 10 C-11.33 10.66 -11.66 11.32 -12 12 C-12.53625 11.7628125 -13.0725 11.525625 -13.625 11.28125 C-17.2174234 10.85583144 -19.02014574 12.56309473 -22 14.5 C-27.52226027 18.08946918 -27.52226027 18.08946918 -30.1796875 17.59179688 C-30.78039062 17.39650391 -31.38109375 17.20121094 -32 17 C-31.26885986 16.59160889 -30.53771973 16.18321777 -29.78442383 15.76245117 C-27.05376892 14.23670722 -24.32350786 12.71026146 -21.59350586 11.18334961 C-19.83802811 10.20177404 -18.08210323 9.22099827 -16.32617188 8.24023438 C-15.21435547 7.61826172 -14.10253906 6.99628906 -12.95703125 6.35546875 C-11.93585205 5.78465576 -10.91467285 5.21384277 -9.86254883 4.62573242 C-7.97082995 3.55136517 -6.09973743 2.43974595 -4.25268555 1.2902832 C-2 0 -2 0 0 0 Z " fill="#E5811D" transform="translate(118,34)"/>
<path d="M0 0 C1.98 0 3.96 0 6 0 C6 0.66 6 1.32 6 2 C4.68 2.33 3.36 2.66 2 3 C5.72430357 3.69289369 9.21083746 4.11144596 13 4 C13 3.34 13 2.68 13 2 C11.35 2.33 9.7 2.66 8 3 C8 2.01 8 1.02 8 0 C9.99954746 -0.04254356 12.00041636 -0.04080783 14 0 C15 1 15 1 15.09765625 2.84765625 C15.06510417 4.8984375 15.03255208 6.94921875 15 9 C9.66666667 9 4.33333333 9 -1 9 C-1 8.34 -1 7.68 -1 7 C0.65 7 2.3 7 4 7 C2.35 6.01 0.7 5.02 -1 4 C-0.67 2.68 -0.34 1.36 0 0 Z M10 5 C10 5.99 10 6.98 10 8 C10.99 7.67 11.98 7.34 13 7 C13 6.34 13 5.68 13 5 C12.01 5 11.02 5 10 5 Z " fill="#F8F9F9" transform="translate(236,116)"/>
<path d="M0 0 C0.33 0 0.66 0 1 0 C1 5.94 1 11.88 1 18 C-3.4480966 17.11038068 -5.55498416 16.3148341 -9.30078125 14.05859375 C-10.27724609 13.47529297 -11.25371094 12.89199219 -12.25976562 12.29101562 C-13.26716797 11.67935547 -14.27457031 11.06769531 -15.3125 10.4375 C-16.33923828 9.82197266 -17.36597656 9.20644531 -18.42382812 8.57226562 C-20.95320506 7.05463946 -23.47833212 5.53038935 -26 4 C-21.55212281 2.54344241 -19.14538633 3.96499217 -15 6 C-14.01 6.66 -13.02 7.32 -12 8 C-12 8.66 -12 9.32 -12 10 C-9.525 10.99 -9.525 10.99 -7 12 C-7 12.66 -7 13.32 -7 14 C-6.21625 14.144375 -5.4325 14.28875 -4.625 14.4375 C-2 15 -2 15 0 16 C0 10.72 0 5.44 0 0 Z " fill="#C8803D" transform="translate(213,45)"/>
<path d="M0 0 C2.29141286 -0.05384521 4.58318188 -0.09272087 6.875 -0.125 C8.78925781 -0.15980469 8.78925781 -0.15980469 10.7421875 -0.1953125 C14 0 14 0 16 2 C16.125 5.625 16.125 5.625 16 9 C15.34 9 14.68 9 14 9 C13.67 7.02 13.34 5.04 13 3 C12.01 3 11.02 3 10 3 C9.67 4.98 9.34 6.96 9 9 C8.34 9 7.68 9 7 9 C7 6.69 7 4.38 7 2 C5.68 2 4.36 2 3 2 C2.67 4.31 2.34 6.62 2 9 C1.34 9 0.68 9 0 9 C0 6.03 0 3.06 0 0 Z " fill="#FAFBFB" transform="translate(295,116)"/>
<path d="M0 0 C2.05078125 0.03255208 4.1015625 0.06510417 6.15234375 0.09765625 C6.23320522 1.88858816 6.29147077 3.68055253 6.33984375 5.47265625 C6.37464844 6.47039062 6.40945313 7.468125 6.4453125 8.49609375 C6.34863281 9.35460937 6.25195312 10.213125 6.15234375 11.09765625 C3.15234375 13.09765625 3.15234375 13.09765625 -0.03515625 12.72265625 C-1.42734375 12.41328125 -1.42734375 12.41328125 -2.84765625 12.09765625 C-2.84765625 11.43765625 -2.84765625 10.77765625 -2.84765625 10.09765625 C-0.86765625 10.09765625 1.11234375 10.09765625 3.15234375 10.09765625 C1.97671875 9.66453125 1.97671875 9.66453125 0.77734375 9.22265625 C-1.84765625 8.09765625 -1.84765625 8.09765625 -3.84765625 6.09765625 C-3.12417691 0.16512563 -3.12417691 0.16512563 0 0 Z M-0.84765625 2.09765625 C-1.17765625 3.08765625 -1.50765625 4.07765625 -1.84765625 5.09765625 C-1.51765625 5.75765625 -1.18765625 6.41765625 -0.84765625 7.09765625 C0.80234375 6.76765625 2.45234375 6.43765625 4.15234375 6.09765625 C3.82234375 4.77765625 3.49234375 3.45765625 3.15234375 2.09765625 C1.83234375 2.09765625 0.51234375 2.09765625 -0.84765625 2.09765625 Z " fill="#FBFBFB" transform="translate(347.84765625,115.90234375)"/>
<path d="M0 0 C1.65 0.33 3.3 0.66 5 1 C4.67 2.65 4.34 4.3 4 6 C5.32 6.33 6.64 6.66 8 7 C8 8.65 8 10.3 8 12 C5.03 12 2.06 12 -1 12 C-1.66 10.68 -2.32 9.36 -3 8 C-2.34 7.01 -1.68 6.02 -1 5 C-0.61500109 3.34450469 -0.27206865 1.6777567 0 0 Z M1 2 C1 2.66 1 3.32 1 4 C1.66 4 2.32 4 3 4 C3 3.34 3 2.68 3 2 C2.34 2 1.68 2 1 2 Z M0 7 C0 7.99 0 8.98 0 10 C1.32 10 2.64 10 4 10 C3.34 9.01 2.68 8.02 2 7 C1.34 7 0.68 7 0 7 Z " fill="#FAFAFA" transform="translate(260,113)"/>
<path d="M0 0 C0.33 0.99 0.66 1.98 1 3 C-0.45264038 3.8638129 -1.9123163 4.71580454 -3.375 5.5625 C-4.59316406 6.27599609 -4.59316406 6.27599609 -5.8359375 7.00390625 C-6.90714844 7.49697266 -6.90714844 7.49697266 -8 8 C-8.66 7.67 -9.32 7.34 -10 7 C-10 6.67 -10 6.34 -10 6 C-10.928125 6.309375 -10.928125 6.309375 -11.875 6.625 C-12.57625 6.74875 -13.2775 6.8725 -14 7 C-14.66 6.34 -15.32 5.68 -16 5 C-14.28133783 3.9615789 -12.54955402 2.94485365 -10.8125 1.9375 C-9.84957031 1.36902344 -8.88664063 0.80054688 -7.89453125 0.21484375 C-4.67083459 -1.13815174 -3.27479579 -1.04769518 0 0 Z " fill="#F4F3F3" transform="translate(159,36)"/>
<path d="M0 0 C0.66 0 1.32 0 2 0 C2 1.32 2 2.64 2 4 C4.31 4.33 6.62 4.66 9 5 C9.625 7.3125 9.625 7.3125 10 10 C8 13 8 13 6.125 13.75 C4 14 4 14 0 13 C0 8.71 0 4.42 0 0 Z M3 6 C2.67 7.32 2.34 8.64 2 10 C3.485 10.99 3.485 10.99 5 12 C5.99 11.01 6.98 10.02 8 9 C7.67 8.01 7.34 7.02 7 6 C5.68 6 4.36 6 3 6 Z " fill="#FBFBFB" transform="translate(313,112)"/>
<path d="M0 0 C6.0546875 -0.1953125 6.0546875 -0.1953125 8 0 C8.66 0.66 9.32 1.32 10 2 C9.625 5.125 9.625 5.125 9 8 C6.69 8.33 4.38 8.66 2 9 C2 9.99 2 10.98 2 12 C1.34 12 0.68 12 0 12 C0 8.04 0 4.08 0 0 Z M2 2 C2 3.65 2 5.3 2 7 C3.65 6.67 5.3 6.34 7 6 C7 4.68 7 3.36 7 2 C5.35 2 3.7 2 2 2 Z " fill="#F9FAFA" transform="translate(274,113)"/>
<path d="M0 0 C0 0.66 0 1.32 0 2 C-19.37692873 13.25202057 -19.37692873 13.25202057 -24 15 C-24.66 14.67 -25.32 14.34 -26 14 C-22.0457735 11.65965277 -18.08596494 9.3289215 -14.125 7 C-12.99707031 6.33226562 -11.86914062 5.66453125 -10.70703125 4.9765625 C-9.09248047 4.02910156 -9.09248047 4.02910156 -7.4453125 3.0625 C-5.95281982 2.18271484 -5.95281982 2.18271484 -4.43017578 1.28515625 C-2 0 -2 0 0 0 Z " fill="#DA8A38" transform="translate(144,19)"/>
<path d="M0 0 C2.375 -0.1875 2.375 -0.1875 5 0 C7.29013653 3.4352048 7.17842973 4.985331 7 9 C3.71303767 9.79953138 2.28976808 10.09658936 -1 9 C-1 7.35 -1 5.7 -1 4 C0.65 3.67 2.3 3.34 4 3 C2.35 3 0.7 3 -1 3 C-0.67 2.01 -0.34 1.02 0 0 Z M2 5 C1.67 5.99 1.34 6.98 1 8 C2.32 7.67 3.64 7.34 5 7 C5 6.34 5 5.68 5 5 C4.01 5 3.02 5 2 5 Z " fill="#FBFCFB" transform="translate(325,116)"/>
<path d="M0 0 C2.375 -0.1875 2.375 -0.1875 5 0 C7.29013653 3.4352048 7.17842973 4.985331 7 9 C4.36 9 1.72 9 -1 9 C-1.33 8.01 -1.66 7.02 -2 6 C-1.67 5.34 -1.34 4.68 -1 4 C1.5625 3.375 1.5625 3.375 4 3 C2.35 3 0.7 3 -1 3 C-0.67 2.01 -0.34 1.02 0 0 Z M2 5 C1.67 5.99 1.34 6.98 1 8 C2.32 7.67 3.64 7.34 5 7 C5 6.34 5 5.68 5 5 C4.01 5 3.02 5 2 5 Z " fill="#F5F6F5" transform="translate(227,116)"/>
<path d="M0 0 C0.78375 0.04125 1.5675 0.0825 2.375 0.125 C3.035 1.775 3.695 3.425 4.375 5.125 C2.065 5.125 -0.245 5.125 -2.625 5.125 C-2.625 5.785 -2.625 6.445 -2.625 7.125 C-0.645 7.125 1.335 7.125 3.375 7.125 C3.375 7.785 3.375 8.445 3.375 9.125 C0.36468256 10.05923645 -0.49150268 10.16949911 -3.625 9.125 C-4.25 5.75 -4.25 5.75 -4.625 2.125 C-2.625 0.125 -2.625 0.125 0 0 Z M-1.625 2.125 C-1.955 2.785 -2.285 3.445 -2.625 4.125 C-0.975 4.125 0.675 4.125 2.375 4.125 C2.045 3.465 1.715 2.805 1.375 2.125 C0.385 2.125 -0.605 2.125 -1.625 2.125 Z " fill="#F9FAFA" transform="translate(289.625,115.875)"/>
<path d="M0 0 C1.99954746 -0.04254356 4.00041636 -0.04080783 6 0 C7 1 7 1 7.09765625 2.84765625 C7.04882812 5.92382812 7.04882812 5.92382812 7 9 C4.69 9 2.38 9 0 9 C-0.5625 7.0625 -0.5625 7.0625 -1 5 C0 4 0 4 2.5625 3.9375 C3.7690625 3.9684375 3.7690625 3.9684375 5 4 C5 3.34 5 2.68 5 2 C3.35 2 1.7 2 0 2 C0 1.34 0 0.68 0 0 Z M2 5 C2 5.99 2 6.98 2 8 C2.99 7.67 3.98 7.34 5 7 C5 6.34 5 5.68 5 5 C4.01 5 3.02 5 2 5 Z " fill="#FBFBFB" transform="translate(379,116)"/>
<path d="M0 0 C-2.06228254 1.27118733 -4.12481891 2.54195965 -6.1875 3.8125 C-6.76564453 4.16892578 -7.34378906 4.52535156 -7.93945312 4.89257812 C-9.62496993 5.93055175 -11.31246025 6.96531853 -13 8 C-14.32451172 8.87205078 -14.32451172 8.87205078 -15.67578125 9.76171875 C-18 11 -18 11 -22 11 C-22 10.34 -22 9.68 -22 9 C-20.21046815 8.16209211 -18.41830305 7.32980604 -16.625 6.5 C-15.12839844 5.80390625 -15.12839844 5.80390625 -13.6015625 5.09375 C-11 4 -11 4 -9 4 C-9 3.34 -9 2.68 -9 2 C-3.375 -1.125 -3.375 -1.125 0 0 Z " fill="#E28D39" transform="translate(156,30)"/>
<path d="M0 0 C2.31 0 4.62 0 7 0 C7.02698189 1.62490954 7.04638757 3.24994633 7.0625 4.875 C7.07410156 5.77992187 7.08570313 6.68484375 7.09765625 7.6171875 C7 10 7 10 6 12 C4.125 12.8125 4.125 12.8125 2 13 C0.25 11.5625 0.25 11.5625 -1 10 C-0.01 10 0.98 10 2 10 C2.66 9.67 3.32 9.34 4 9 C4.40729228 6.67843403 4.74438677 4.3431213 5 2 C3.35 2 1.7 2 0 2 C0 1.34 0 0.68 0 0 Z " fill="#F5F7F6" transform="translate(217,113)"/>
<path d="M0 0 C3.375 -0.125 3.375 -0.125 7 0 C9 2 9 2 9.125 5.625 C9.08375 6.73875 9.0425 7.8525 9 9 C8.34 9 7.68 9 7 9 C6.67 7.02 6.34 5.04 6 3 C5.01 3 4.02 3 3 3 C2.67 4.98 2.34 6.96 2 9 C1.34 9 0.68 9 0 9 C0 6.03 0 3.06 0 0 Z " fill="#FAFBFB" transform="translate(334,116)"/>
<path d="M0 0 C3.375 -0.1875 3.375 -0.1875 7 0 C9.29013653 3.4352048 9.17842973 4.985331 9 9 C8.34 9 7.68 9 7 9 C6.67 6.69 6.34 4.38 6 2 C4.68 2 3.36 2 2 2 C2 4.31 2 6.62 2 9 C1.34 9 0.68 9 0 9 C0 6.03 0 3.06 0 0 Z " fill="#FCFCFC" transform="translate(368,116)"/>
<path d="M0 0 C0.66 0 1.32 0 2 0 C2.33 2.31 2.66 4.62 3 7 C3.99 7 4.98 7 6 7 C6 4.69 6 2.38 6 0 C6.66 0 7.32 0 8 0 C8 2.97 8 5.94 8 9 C5.69 9 3.38 9 1 9 C-1.125 2.25 -1.125 2.25 0 0 Z " fill="#FCFCFC" transform="translate(357,116)"/>
<path d="M0 0 C-3.28380602 2.03382681 -6.57821272 4.04979562 -9.875 6.0625 C-10.81214844 6.64322266 -11.74929687 7.22394531 -12.71484375 7.82226562 C-13.61074219 8.36689453 -14.50664063 8.91152344 -15.4296875 9.47265625 C-16.25710449 9.98062744 -17.08452148 10.48859863 -17.93701172 11.01196289 C-18.61779785 11.33801514 -19.29858398 11.66406738 -20 12 C-20.66 11.67 -21.32 11.34 -22 11 C-21.01 10.67 -20.02 10.34 -19 10 C-19 9.34 -19 8.68 -19 8 C-17.35 7.67 -15.7 7.34 -14 7 C-14 6.34 -14 5.68 -14 5 C-11.953125 3.45703125 -11.953125 3.45703125 -9.25 1.8125 C-8.36828125 1.26207031 -7.4865625 0.71164063 -6.578125 0.14453125 C-3.66479209 -1.148812 -2.92089858 -0.90783637 0 0 Z " fill="#D88738" transform="translate(96,65)"/>
<path d="M0 0 C2.31 0 4.62 0 7 0 C8.85776765 3.13498292 9.20140476 5.37471432 9 9 C8.34 9 7.68 9 7 9 C6.67 7.02 6.34 5.04 6 3 C4.68 2.67 3.36 2.34 2 2 C2 4.31 2 6.62 2 9 C1.34 9 0.68 9 0 9 C0 6.03 0 3.06 0 0 Z " fill="#FBFBFB" transform="translate(389,116)"/>
<path d="M0 0 C0.66 0 1.32 0 2 0 C2 0.99 2 1.98 2 3 C3.32 3 4.64 3 6 3 C6 3.66 6 4.32 6 5 C5.34 5 4.68 5 4 5 C4 5.66 4 6.32 4 7 C2.35 7.33 0.7 7.66 -1 8 C-1 8.66 -1 9.32 -1 10 C-1.99 10 -2.98 10 -4 10 C-4 8.02 -4 6.04 -4 4 C-3.67 4.99 -3.34 5.98 -3 7 C-2.01 7 -1.02 7 0 7 C0 4.69 0 2.38 0 0 Z " fill="#EC7F13" transform="translate(78,65)"/>
<path d="M0 0 C0 0.66 0 1.32 0 2 C-2.24179377 3.36965208 -4.49172338 4.72052808 -6.75 6.0625 C-7.38421875 6.45244141 -8.0184375 6.84238281 -8.671875 7.24414062 C-13.50498766 10.08862881 -13.50498766 10.08862881 -16.21582031 9.60327148 C-16.80459961 9.40419189 -17.39337891 9.2051123 -18 9 C-15.37785672 7.49480613 -12.75255792 5.99568681 -10.125 4.5 C-9.37863281 4.07074219 -8.63226563 3.64148437 -7.86328125 3.19921875 C-7.14785156 2.79316406 -6.43242188 2.38710938 -5.6953125 1.96875 C-5.03547363 1.59169922 -4.37563477 1.21464844 -3.69580078 0.82617188 C-2 0 -2 0 0 0 Z " fill="#DE8A35" transform="translate(104,42)"/>
<path d="M0 0 C1.8125 1.5625 1.8125 1.5625 3 3 C1.989375 2.7525 0.97875 2.505 -0.0625 2.25 C-5.19114212 1.92437193 -6.79479871 3.19653247 -11 6 C-11.99 6.495 -11.99 6.495 -13 7 C-13.66 6.34 -14.32 5.68 -15 5 C-13.4493684 3.96122737 -11.88390319 2.94457445 -10.3125 1.9375 C-9.44238281 1.36902344 -8.57226562 0.80054688 -7.67578125 0.21484375 C-4.53921134 -1.20920478 -3.21589033 -1.1013323 0 0 Z " fill="#D98131" transform="translate(159,13)"/>
<path d="M0 0 C1.4540625 0.0309375 1.4540625 0.0309375 2.9375 0.0625 C2.9375 0.7225 2.9375 1.3825 2.9375 2.0625 C1.6175 2.3925 0.2975 2.7225 -1.0625 3.0625 C0.2575 3.3925 1.5775 3.7225 2.9375 4.0625 C2.9375 4.7225 2.9375 5.3825 2.9375 6.0625 C-0.0325 5.5675 -0.0325 5.5675 -3.0625 5.0625 C-3.625 3.125 -3.625 3.125 -4.0625 1.0625 C-3.0625 0.0625 -3.0625 0.0625 0 0 Z " fill="#EEF0EF" transform="translate(239.0625,115.9375)"/>
<path d="M0 0 C3.05477677 1.52738838 5.39755536 3.79357955 8 6 C6.3125 6.6875 6.3125 6.6875 4 7 C1.25 5.5625 1.25 5.5625 -1 4 C-0.67 2.68 -0.34 1.36 0 0 Z " fill="#E28421" transform="translate(181,41)"/>
<path d="M0 0 C4.30764815 1.56641751 8.06171464 3.68336156 12 6 C9 7 9 7 5.8125 5.5625 C4.884375 5.046875 3.95625 4.53125 3 4 C3 3.34 3 2.68 3 2 C2.01 2 1.02 2 0 2 C0 1.34 0 0.68 0 0 Z " fill="#DB8131" transform="translate(169,20)"/>
<path d="M0 0 C3.8063457 0.67170806 7.35206816 1.72746564 11 3 C10.34 3.66 9.68 4.32 9 5 C7.68445015 4.5504955 6.37261642 4.09010284 5.0625 3.625 C4.33160156 3.36976562 3.60070312 3.11453125 2.84765625 2.8515625 C1 2 1 2 0 0 Z " fill="#DA802A" transform="translate(187,48)"/>
<path d="M0 0 C3.94120709 0.56302958 6.7508723 1.6791945 10 4 C10 4.66 10 5.32 10 6 C6.40992874 4.66654496 3.20429093 3.1056769 0 1 C0 0.67 0 0.34 0 0 Z " fill="#DA8D41" transform="translate(170,38)"/>
<path d="M0 0 C0.515625 0.2475 1.03125 0.495 1.5625 0.75 C-4.8375 4.81153846 -4.8375 4.81153846 -7.875 4.5 C-8.390625 4.2525 -8.90625 4.005 -9.4375 3.75 C-3.0375 -0.31153846 -3.0375 -0.31153846 0 0 Z " fill="#DF9843" transform="translate(134.4375,41.25)"/>
<path d="" fill="#000000" transform="translate(0,0)"/>
<path d="" fill="#000000" transform="translate(0,0)"/>
<path d="" fill="#000000" transform="translate(0,0)"/>
<path d="" fill="#000000" transform="translate(0,0)"/>
<path d="" fill="#000000" transform="translate(0,0)"/>
<path d="" fill="#000000" transform="translate(0,0)"/>
<path d="" fill="#000000" transform="translate(0,0)"/>
<path d="" fill="#000000" transform="translate(0,0)"/>
<path d="" fill="#000000" transform="translate(0,0)"/>
<path d="" fill="#000000" transform="translate(0,0)"/>
<path d="" fill="#000000" transform="translate(0,0)"/>
<path d="" fill="#000000" transform="translate(0,0)"/>
<path d="" fill="#000000" transform="translate(0,0)"/>
<path d="" fill="#000000" transform="translate(0,0)"/>
<path d="" fill="#000000" transform="translate(0,0)"/>
<path d="" fill="#000000" transform="translate(0,0)"/>
<path d="" fill="#000000" transform="translate(0,0)"/>
<path d="" fill="#000000" transform="translate(0,0)"/>
<path d="" fill="#000000" transform="translate(0,0)"/>
<path d="" fill="#000000" transform="translate(0,0)"/>
<path d="" fill="#000000" transform="translate(0,0)"/>
<path d="" fill="#000000" transform="translate(0,0)"/>
<path d="" fill="#000000" transform="translate(0,0)"/>
</svg>
